<?xml version="1.0" encoding="utf-8"?>
<!-- Designed by Vexels.com - 2016 All Rights Reserved - https://vexels.com/terms-and-conditions/  -->

<svg version="1.0" id="Capa_1" xmlns="http://www.w3.org/2000/svg" xmlns:xlink="http://www.w3.org/1999/xlink" x="0px" y="0px"
	 width="1200px" height="1200px" viewBox="0 0 1200 1200" enable-background="new 0 0 1200 1200" xml:space="preserve">
<g>
	<rect x="253.622" y="76.575" fill="#FFFFFF" width="692.757" height="1046.851"/>
	<path fill="#009B46" d="M814.294,1069.646H372.611c-39.543,0-71.599-32.057-71.599-71.599V202.26c0-39.544,32.057-71.6,71.6-71.6
		h441.682c39.543,0,71.599,32.056,71.599,71.599v795.789C885.893,1037.59,853.837,1069.646,814.294,1069.646z"/>
	<g>
		<g>
			<path fill="#FFFFFF" d="M463.982,807.085c0,2.062-0.131,4.303-0.386,6.724c-0.258,2.424-0.722,4.792-1.391,7.112
				c-0.674,2.318-1.573,4.51-2.705,6.571c-1.137,2.062-2.527,3.814-4.176,5.255c-2.062,1.754-4.327,3.091-6.8,4.019
				c-2.475,0.927-5.051,1.651-7.729,2.163c-0.827,0.209-1.701,0.31-2.63,0.31c-0.926,0-1.805,0.103-2.627,0.31
				c-1.136,0.308-1.883,0.773-2.241,1.391c-0.362,0.618-0.541,1.496-0.541,2.628v29.835c0,1.137-0.336,2.063-1.005,2.782
				c-0.671,0.722-1.573,1.083-2.705,1.083h-11.441c-2.682,0-4.017-1.338-4.017-4.019v-94.764c0-1.133,0.385-2.087,1.16-2.86
				c0.771-0.773,1.721-1.159,2.857-1.159h19.79c4.946,0,9.092,0.876,12.442,2.629c3.35,1.752,6.08,4.123,8.194,7.111
				c2.111,2.99,3.632,6.467,4.561,10.434C463.517,798.609,463.982,802.756,463.982,807.085z M445.122,804.457
				c0-1.337-0.131-2.807-0.386-4.405c-0.258-1.598-0.722-3.093-1.394-4.484c-0.671-1.39-1.569-2.573-2.702-3.554
				c-1.136-0.98-2.527-1.468-4.176-1.468c-1.133,0-1.983,0.439-2.551,1.313c-0.564,0.876-0.85,1.778-0.85,2.704v25.199
				c0,1.135,0.334,2.086,1.005,2.859c0.672,0.773,1.57,1.16,2.706,1.16c1.546,0,2.834-0.464,3.866-1.392
				c1.029-0.928,1.876-2.086,2.551-3.477c0.668-1.392,1.156-2.834,1.466-4.329c0.31-1.492,0.465-2.859,0.465-4.096V804.457z"/>
			<path fill="#FFFFFF" d="M517.268,874.487c0.103,0.826-0.13,1.495-0.696,2.009c-0.566,0.516-1.263,0.773-2.086,0.773h-13.912
				c-1.648,0-2.655-0.851-3.015-2.551c-0.362-1.701-0.593-3.58-0.696-5.643c-0.103-2.061-0.361-3.942-0.771-5.644
				c-0.413-1.699-1.497-2.549-3.246-2.549h-6.184c-1.855,0-2.992,0.85-3.401,2.549c-0.413,1.701-0.646,3.583-0.695,5.644
				c-0.055,2.063-0.258,3.941-0.62,5.643c-0.362,1.7-1.367,2.551-3.016,2.551h-13.292c-0.929,0-1.6-0.31-2.01-0.928
				c-0.413-0.618-0.568-1.337-0.465-2.164v-0.618c0.517-8.45,1.443-16.851,2.785-25.197c1.336-8.349,2.472-16.696,3.401-25.044
				c0.719-6.388,1.546-12.727,2.472-19.015c0.926-6.285,2.06-12.572,3.401-18.86c0-0.31,0.128-1.056,0.385-2.241
				c0.256-1.184,0.593-2.421,1.006-3.709c0.41-1.288,0.823-2.448,1.235-3.479c0.411-1.029,0.775-1.546,1.081-1.546h21.645
				c0.31,0,0.668,0.541,1.081,1.623c0.41,1.082,0.798,2.295,1.16,3.632c0.36,1.341,0.669,2.629,0.926,3.865
				c0.258,1.237,0.439,2.01,0.541,2.318c1.339,6.185,2.5,12.422,3.48,18.707c0.978,6.286,1.879,12.625,2.706,19.014
				c1.133,8.452,2.418,16.85,3.862,25.198c1.443,8.347,2.422,16.799,2.937,25.352V874.487z M494.081,840.012l-4.021-45.14
				l-4.637,45.758v0.31c-0.103,1.136,0.389,1.882,1.47,2.241c1.081,0.363,2.035,0.54,2.86,0.54c1.133,0,2.162-0.231,3.092-0.695
				c0.926-0.463,1.336-1.364,1.236-2.704V840.012z"/>
			<path fill="#FFFFFF" d="M574.687,874.795c0,0.827-0.286,1.445-0.851,1.856c-0.567,0.412-1.215,0.618-1.934,0.618h-15.458
				c-0.413-0.618-0.747-1.546-1.005-2.782c-0.258-1.237-0.462-2.525-0.616-3.866c-0.155-1.337-0.286-2.651-0.389-3.941
				c-0.103-1.287-0.155-2.292-0.155-3.014v-21.024c0-1.855-0.617-3.711-1.852-5.566c-1.24-1.855-2.889-2.783-4.948-2.783
				c-1.136,0-2.194,0.336-3.171,1.005c-0.981,0.672-1.466,1.574-1.466,2.706v36.173c0,1.136-0.365,1.932-1.084,2.396
				c-0.72,0.463-1.598,0.696-2.627,0.696h-11.75c-2.472,0-3.708-1.236-3.708-3.71v-95.382c0-1.133,0.386-2.034,1.16-2.704
				c0.771-0.67,1.721-1.006,2.858-1.006h18.553c9.684,0,16.639,2.527,20.867,7.575c4.224,5.051,6.338,12.267,6.338,21.643
				c0,4.433-0.826,8.556-2.471,12.366c-1.65,3.815-4.328,7.011-8.039,9.585c4.017,2.682,6.775,5.798,8.269,9.353
				c1.495,3.556,2.241,7.653,2.241,12.29v15.768c0,1.341,0.052,2.628,0.155,3.864c0.103,1.237,0.258,2.473,0.465,3.709
				c0.1,0.723,0.231,1.419,0.386,2.088C574.608,873.38,574.687,874.075,574.687,874.795z M554.897,803.763
				c0-1.33-0.103-2.79-0.309-4.378c-0.207-1.59-0.617-3.025-1.236-4.305c-0.62-1.28-1.47-2.358-2.551-3.23
				c-1.081-0.869-2.5-1.305-4.252-1.305c-0.826,0-1.597,0.409-2.316,1.228c-0.723,0.822-1.085,1.639-1.085,2.459v20.296
				c0,1.127,0.413,2.024,1.239,2.691c0.824,0.666,1.75,0.998,2.782,0.998c1.645,0,2.988-0.539,4.017-1.615
				c1.03-1.076,1.805-2.358,2.321-3.843c0.513-1.484,0.874-3.048,1.081-4.688C554.793,806.43,554.897,804.996,554.897,803.763z"/>
			<path fill="#FFFFFF" d="M632.799,876.728c-0.568,0.362-1.108,0.541-1.625,0.541h-14.841c-1.133,0-2.19-1.133-3.167-3.402
				c-0.982-2.265-1.856-5.124-2.627-8.579c-0.774-3.452-1.497-7.238-2.165-11.363c-0.672-4.12-1.339-8.011-2.011-11.671
				c-0.671-3.657-1.287-6.802-1.855-9.43c-0.564-2.628-1.157-4.197-1.776-4.714v46.378c0,0.826-0.31,1.495-0.927,2.009
				c-0.619,0.516-1.342,0.773-2.165,0.773h-12.676c-0.826,0-1.494-0.31-2.01-0.928c-0.517-0.618-0.772-1.337-0.772-2.164v-96.309
				c0-0.824,0.359-1.597,1.081-2.32c0.72-0.719,1.494-1.081,2.321-1.081h11.746c0.93,0,1.725,0.258,2.396,0.773
				c0.672,0.517,1.006,1.29,1.006,2.319v40.658c0.099-0.207,0.464-1.393,1.081-3.556c0.619-2.164,1.239-4.585,1.855-7.267
				c0.62-2.678,1.212-5.177,1.78-7.497c0.564-2.318,0.899-3.734,1.002-4.251c0.103-0.618,0.464-2.061,1.084-4.327
				c0.616-2.266,1.312-4.662,2.086-7.189c0.771-2.526,1.598-4.767,2.472-6.726c0.874-1.956,1.625-2.937,2.241-2.937h14.222
				c0.826,0,1.493,0.258,2.01,0.773c0.517,0.517,0.774,1.186,0.774,2.009c0,0.31-0.102,0.904-0.309,1.778
				c-0.207,0.877-0.441,1.832-0.696,2.859c-0.257,1.032-0.516,1.986-0.774,2.861c-0.258,0.875-0.438,1.521-0.541,1.931
				c-0.206,0.619-0.567,1.909-1.081,3.866c-0.516,1.959-1.108,4.2-1.779,6.724c-0.672,2.527-1.367,5.18-2.086,7.962
				c-0.72,2.781-1.391,5.386-2.008,7.806c-0.619,2.424-1.108,4.483-1.469,6.184c-0.362,1.701-0.489,2.706-0.386,3.016l11.44,52.559
				v0.465C633.649,875.878,633.363,876.368,632.799,876.728z"/>
			<path fill="#FFFFFF" d="M659.837,876.109c-0.516,0.772-1.29,1.16-2.32,1.16h-13.293c-0.928,0-1.676-0.361-2.241-1.083
				c-0.568-0.719-0.85-1.492-0.85-2.319V778.64c0-1.133,0.282-2.112,0.85-2.938c0.565-0.823,1.416-1.236,2.549-1.236H656.9
				c1.133,0,2.032,0.386,2.704,1.159c0.671,0.773,1.005,1.728,1.005,2.86v95.073C660.609,874.487,660.351,875.336,659.837,876.109z"
				/>
			<path fill="#FFFFFF" d="M724.754,876.186c-0.464,0.722-1.263,1.083-2.396,1.083h-12.369c-1.133,0-2.293-1.338-3.477-4.019
				c-1.184-2.679-2.317-5.721-3.401-9.121c-1.081-3.401-2.036-6.672-2.858-9.817c-0.826-3.142-1.394-5.229-1.7-6.261
				c-1.446-5.255-2.889-10.435-4.331-15.536c-1.443-5.102-2.885-10.28-4.327-15.537v57.509c0,0.826-0.258,1.495-0.771,2.009
				c-0.52,0.516-1.188,0.773-2.011,0.773h-12.986c-0.926,0-1.621-0.31-2.086-0.928c-0.465-0.618-0.695-1.337-0.695-2.164v-96.309
				c0-0.927,0.333-1.724,1.005-2.395c0.668-0.67,1.467-1.006,2.396-1.006h11.437c0.719,0,1.495,0.541,2.32,1.623
				c0.823,1.082,1.645,2.5,2.472,4.25c0.826,1.754,1.598,3.66,2.32,5.721c0.719,2.064,1.391,4.047,2.01,5.953
				c0.617,1.907,1.157,3.66,1.622,5.255c0.465,1.599,0.798,2.706,1.005,3.324c1.443,4.637,2.909,9.173,4.406,13.603
				c1.491,4.433,3.013,8.966,4.558,13.603v-49.623c0-2.474,1.133-3.71,3.401-3.71h11.905c1.026,0,1.829,0.386,2.396,1.159
				c0.565,0.773,0.851,1.623,0.851,2.551v95.382C725.45,874.59,725.216,875.466,724.754,876.186z"/>
			<path fill="#FFFFFF" d="M784.178,876.341c-0.877,0.618-1.779,0.928-2.705,0.928h-10.205c-0.516,0-0.978-0.618-1.391-1.856
				c-0.412-1.236-0.671-2.061-0.771-2.473c-2.062,1.754-4.2,3.169-6.417,4.251c-2.218,1.083-4.713,1.623-7.496,1.623
				c-3.401,0-6.366-0.722-8.889-2.163c-2.527-1.443-4.59-3.324-6.184-5.644c-1.601-2.318-2.785-4.946-3.556-7.884
				c-0.774-2.936-1.16-5.953-1.16-9.044v-52.252c0-3.606,0.619-7.111,1.855-10.51c1.236-3.402,2.989-6.44,5.258-9.122
				c2.266-2.679,4.968-4.817,8.115-6.416c3.143-1.596,6.62-2.396,10.435-2.396c3.192,0,6.284,0.464,9.275,1.391
				c2.989,0.927,5.588,2.32,7.809,4.174c2.214,1.855,3.99,4.124,5.333,6.803c1.336,2.68,2.007,5.771,2.007,9.275v6.493
				c0,0.827-0.258,1.546-0.771,2.164c-0.517,0.618-1.188,0.928-2.01,0.928h-13.603c-1.446,0-2.269-0.797-2.475-2.396
				c-0.207-1.598-0.361-3.324-0.461-5.18c-0.106-1.854-0.465-3.58-1.084-5.178c-0.617-1.598-2.162-2.396-4.637-2.396
				c-2.063,0-3.556,0.85-4.483,2.551c-0.926,1.7-1.39,3.428-1.39,5.177v54.107c0,1.135,0.023,2.345,0.075,3.632
				c0.052,1.291,0.283,2.474,0.696,3.556c0.413,1.081,1.029,1.96,1.855,2.627c0.827,0.673,2.011,1.005,3.556,1.005
				c1.339,0,2.652-0.515,3.942-1.546c1.288-1.029,1.931-2.266,1.931-3.709v-13.914c0-1.133-0.333-1.905-1.005-2.318
				c-0.671-0.41-1.415-0.746-2.241-1.004c-0.826-0.256-1.57-0.566-2.241-0.927c-0.672-0.361-1.005-1.107-1.005-2.242v-10.204
				c0-0.823,0.31-1.546,0.929-2.164c0.616-0.617,1.336-0.927,2.162-0.927h19.17c0.826,0,1.545,0.31,2.165,0.927
				c0.62,0.618,0.926,1.341,0.926,2.164v47.614C785.49,874.9,785.054,875.723,784.178,876.341z"/>
		</g>
		<g>
			<path fill="#FFFFFF" d="M599.537,278.544c-95.706,0-173.566,77.859-173.566,173.565c0,95.707,77.86,173.566,173.566,173.566
				c95.707,0,173.566-77.859,173.566-173.566C773.104,356.403,695.245,278.544,599.537,278.544z M760.08,452.109
				c0,88.521-72.021,160.544-160.543,160.544c-88.521,0-160.542-72.023-160.542-160.544s72.021-160.543,160.542-160.543
				C688.059,291.567,760.08,363.589,760.08,452.109z"/>
			<path fill="#FFFFFF" d="M641.252,351.547c-34.657-4.471-70.337-1.018-106.328-1.018c0,67.92,0,135.793,0,204.436
				c13.58,0,26.19,0,40.318,0c0-22.865,0-44.591,0-69.414c19.712,0,38.072,1.481,56.104-0.322
				c33.153-3.314,56.845-29.511,59.214-62.887C692.893,389.473,672.797,355.618,641.252,351.547z M623.395,448.591
				c-15.134,1.093-30.408,0.227-47.584,0.227c0-21.894,0-41.208,0-62.874c16.765,0,33.119-1.144,49.236,0.318
				c16.467,1.495,28.747,16.134,28.707,30.998C653.714,433.142,640.848,447.33,623.395,448.591z"/>
		</g>
	</g>
</g>
</svg>
